<svg height="512" viewBox="0 0 256 256" width="512" xmlns="http://www.w3.org/2000/svg"><rect fill="#cecece" height="151.106" rx="13.665" width="219.26" x="18.37" y="42.283"/><path d="m28.37 179.724v-123.776a13.681 13.681 0 0 1 13.665-13.665h-10a13.681 13.681 0 0 0 -13.665 13.665v123.776a13.681 13.681 0 0 0 13.665 13.665h10a13.681 13.681 0 0 1 -13.665-13.665z" fill="#afafaf"/><path d="m227.63 179.724v-123.776a13.681 13.681 0 0 0 -13.665-13.665h10a13.681 13.681 0 0 1 13.665 13.665v123.776a13.681 13.681 0 0 1 -13.665 13.665h-10a13.681 13.681 0 0 0 13.665-13.665z" fill="#e2e2e2"/><rect fill="#63bce7" height="122.288" rx="5.256" width="202.442" x="26.779" y="50.692"/><path d="m36.779 167.724v-111.777a5.271 5.271 0 0 1 5.256-5.256h-10a5.271 5.271 0 0 0 -5.256 5.256v111.777a5.271 5.271 0 0 0 5.256 5.256h10a5.271 5.271 0 0 1 -5.256-5.256z" fill="#6377e7"/><path d="m219.221 167.724v-111.777a5.271 5.271 0 0 0 -5.256-5.256h10a5.271 5.271 0 0 1 5.256 5.256v111.777a5.271 5.271 0 0 1 -5.256 5.256h-10a5.271 5.271 0 0 0 5.256-5.256z" fill="#63e2e7"/><path d="m89.809 215.547h76.383v9.197h-76.383z" fill="#9e9e9e"/><path d="m89.809 215.547h10v9.197h-10z" fill="#707070"/><path d="m100.67 193.389h54.659v22.158h-54.659z" fill="#cecece"/><path d="m100.67 193.389h10v22.158h-10z" fill="#afafaf"/><circle cx="128" cy="183.184" fill="#9e9e9e" r="4.5"/><path d="m102.25 84.5h51.5v64.5h-51.5z" fill="#9e9e9e"/><path d="m102.25 149-31.25 10v-84.5l31.25 10z" fill="#cecece"/><path d="m153.75 149 31.25 10v-84.5l-31.25 10z" fill="#cecece"/><rect fill="#f8af23" height="44" rx="22" width="114" x="71" y="20.283"/><path d="m81 42.283a22 22 0 0 1 22-22h-10a22 22 0 1 0 0 44h10a22 22 0 0 1 -22-22z" fill="#f87023"/><path d="m175 42.283a22 22 0 0 0 -22-22h10a22 22 0 0 1 0 44h-10a22 22 0 0 0 22-22z" fill="#f8d323"/><g fill="#3f3679"><path d="m108.348 43.849a5.158 5.158 0 0 1 1.141 3.315 5.342 5.342 0 0 1 -1.84 4.318 7.97 7.97 0 0 1 -5.276 1.551h-9.2a.8.8 0 0 1 -.8-.8v-19.895a.8.8 0 0 1 .8-.8h8.957a7.969 7.969 0 0 1 5.078 1.429 4.908 4.908 0 0 1 1.792 4.07 5.025 5.025 0 0 1 -1.034 3.239 4.749 4.749 0 0 1 -1.052.976.807.807 0 0 0 .043 1.383 5.122 5.122 0 0 1 1.391 1.214zm-10.78-4.332a.8.8 0 0 0 .8.8h2.6q2.706 0 2.707-2.311t-2.762-2.306h-2.54a.8.8 0 0 0 -.8.8zm6.6 6.917a2.257 2.257 0 0 0 -.761-1.809 3.212 3.212 0 0 0 -2.158-.654h-2.876a.8.8 0 0 0 -.8.8v3.229a.8.8 0 0 0 .8.8h2.9q2.894.006 2.894-2.367z"/><path d="m117.426 36.473v2.892a.8.8 0 0 0 .8.8h5.658a.8.8 0 0 1 .8.8v2.314a.8.8 0 0 1 -.8.8h-5.654a.8.8 0 0 0 -.8.8v3.165a.8.8 0 0 0 .8.8h6.57a.8.8 0 0 1 .8.8v2.557a.8.8 0 0 1 -.8.8h-11.771a.8.8 0 0 1 -.8-.8v-19.863a.8.8 0 0 1 .8-.8h11.771a.8.8 0 0 1 .8.8v2.527a.8.8 0 0 1 -.8.8h-6.57a.8.8 0 0 0 -.804.808z"/><path d="m144 32.338v2.527a.8.8 0 0 1 -.8.8h-4.23a.8.8 0 0 0 -.8.8v15.763a.8.8 0 0 1 -.8.8h-3.62a.8.8 0 0 1 -.8-.8v-15.755a.8.8 0 0 0 -.8-.8h-4.19a.8.8 0 0 1 -.8-.8v-2.535a.8.8 0 0 1 .8-.8h15.24a.8.8 0 0 1 .8.8z"/><path d="m156.534 49.11h-6.907a.8.8 0 0 0 -.761.545l-.966 2.833a.8.8 0 0 1 -.761.545h-3.743a.8.8 0 0 1 -.755-1.083l7.282-19.738a.8.8 0 0 1 .755-.526h4.869a.8.8 0 0 1 .755.526l7.282 19.738a.8.8 0 0 1 -.755 1.083h-3.8a.8.8 0 0 1 -.761-.545l-.966-2.833a.8.8 0 0 0 -.768-.545zm-1.122-5.016-1.559-4.6a.8.8 0 0 0 -1.523 0l-1.576 4.6a.8.8 0 0 0 .761 1.065h3.135a.8.8 0 0 0 .761-1.065z"/><path d="m128 189.184a6 6 0 1 0 -6-6 6.007 6.007 0 0 0 6 6zm0-9a3 3 0 1 1 -3 3 3 3 0 0 1 3-3z"/><path d="m27.323 234.217h-18a1.5 1.5 0 0 0 0 3h18a1.5 1.5 0 0 0 0-3z"/><path d="m246.68 234.217h-18a1.5 1.5 0 0 0 0 3h18a1.5 1.5 0 0 0 0-3z"/><path d="m218.479 234.217h-180.958a1.5 1.5 0 0 0 0 3h180.958a1.5 1.5 0 0 0 0-3z"/><path d="m9.32 226.244h237.36a1.5 1.5 0 0 0 0-3h-78.989v-7.7a1.5 1.5 0 0 0 -1.5-1.5h-9.362v-19.155h67.137a15.182 15.182 0 0 0 15.164-15.165v-123.776a15.182 15.182 0 0 0 -15.164-15.165h-37.519a23.527 23.527 0 0 0 -23.447-22h-70a23.527 23.527 0 0 0 -23.447 22h-37.519a15.182 15.182 0 0 0 -15.164 15.165v123.776a15.182 15.182 0 0 0 15.164 15.165h67.137v19.158h-9.362a1.5 1.5 0 0 0 -1.5 1.5v7.7h-78.989a1.5 1.5 0 0 0 0 3zm83.68-160.461h70a23.527 23.527 0 0 0 21.3-13.591h39.664a3.76 3.76 0 0 1 3.755 3.756v111.776a3.759 3.759 0 0 1 -3.755 3.755h-191.93a3.759 3.759 0 0 1 -3.755-3.755v-111.777a3.76 3.76 0 0 1 3.755-3.756h39.666a23.527 23.527 0 0 0 21.3 13.592zm0-44h70a20.5 20.5 0 1 1 0 41h-70a20.5 20.5 0 0 1 0-41zm-73.13 157.941v-123.776a12.178 12.178 0 0 1 12.164-12.165h37.519a23.361 23.361 0 0 0 .985 5.409h-38.5a6.763 6.763 0 0 0 -6.755 6.756v111.776a6.763 6.763 0 0 0 6.755 6.755h191.928a6.763 6.763 0 0 0 6.755-6.755v-111.777a6.763 6.763 0 0 0 -6.755-6.756h-38.5a23.361 23.361 0 0 0 .985-5.409h37.519a12.178 12.178 0 0 1 12.16 12.166v123.776a12.178 12.178 0 0 1 -12.164 12.165h-191.932a12.178 12.178 0 0 1 -12.164-12.165zm82.3 15.165h51.658v19.158h-51.657zm-10.861 22.158h73.383v6.2h-73.383z"/><path d="m70.115 160.211a1.5 1.5 0 0 0 1.342.217l31.027-9.929h51.031l31.027 9.929a1.5 1.5 0 0 0 1.958-1.428v-84.5a1.5 1.5 0 0 0 -1.957-1.429l-31.027 9.929h-24.016v-8.7l4.864 4.864a1.5 1.5 0 0 0 2.121-2.121l-7.425-7.424a1.5 1.5 0 0 0 -2.121 0l-7.425 7.424a1.5 1.5 0 1 0 2.121 2.121l4.865-4.864v8.7h-24.016l-31.027-9.929a1.5 1.5 0 0 0 -1.957 1.429v84.5a1.5 1.5 0 0 0 .615 1.211zm113.385-3.266-28.25-9.04v-62.31l28.25-9.04zm-55.5-38.695a1.5 1.5 0 0 0 1.5-1.5v-30.75h22.75v61.5h-48.5v-61.5h22.75v30.75a1.5 1.5 0 0 0 1.5 1.5zm-55.5-41.695 28.25 9.04v62.311l-28.25 9.04z"/></g></svg>