<?xml version="1.0" standalone="no"?>
<!DOCTYPE svg PUBLIC "-//W3C//DTD SVG 20010904//EN"
 "http://www.w3.org/TR/2001/REC-SVG-20010904/DTD/svg10.dtd">
<svg version="1.0" xmlns="http://www.w3.org/2000/svg"
 width="500.000000pt" height="416.000000pt" viewBox="0 0 500.000000 416.000000"
 preserveAspectRatio="xMidYMid meet">

<g transform="translate(0.000000,416.000000) scale(0.100000,-0.100000)"
fill="#F56B45" stroke="none">
<path d="M2887 4139 c-85 -29 -178 -92 -245 -164 l-58 -63 -44 30 c-109 74
-255 114 -380 105 -100 -8 -220 -47 -295 -96 -57 -38 -162 -138 -197 -190
l-16 -23 -55 26 c-107 50 -201 70 -332 70 -138 0 -231 -21 -348 -80 -267 -134
-437 -414 -437 -719 l0 -63 -58 -10 c-171 -30 -319 -137 -390 -282 -25 -51
-27 -65 -30 -207 -3 -152 -3 -152 27 -217 36 -74 100 -149 169 -197 l49 -34
-33 -50 c-57 -87 -78 -165 -78 -285 0 -89 5 -115 27 -173 33 -84 69 -138 141
-205 61 -58 180 -120 245 -129 36 -5 45 -12 72 -56 62 -101 155 -185 284 -254
33 -18 55 -33 48 -33 -7 0 -37 -9 -67 -20 -65 -25 -139 -88 -168 -144 -28 -52
-30 -146 -5 -195 9 -19 17 -36 17 -37 0 -2 -17 -6 -38 -10 -43 -7 -106 -47
-135 -85 -10 -15 -21 -47 -24 -72 -5 -44 -6 -45 -50 -51 -89 -12 -153 -64
-153 -124 0 -31 26 -79 49 -92 11 -5 71 -10 135 -10 112 0 115 1 135 27 12 14
24 36 27 47 4 18 11 21 43 18 56 -6 118 15 160 54 46 41 65 81 59 126 l-3 33
105 0 c96 0 110 3 170 31 122 58 174 130 175 239 0 72 -14 109 -63 161 l-20
21 111 6 c149 9 260 37 386 98 97 47 105 50 114 32 22 -42 176 -182 245 -222
346 -201 786 -145 1053 135 54 57 139 177 139 197 0 2 7 21 15 40 l15 36 45
-20 c112 -50 279 -61 414 -29 277 67 489 303 517 575 l7 63 66 12 c234 41 435
203 535 434 l31 71 0 215 c0 215 0 215 -28 279 -16 36 -45 90 -64 120 l-36 55
24 71 c20 58 24 90 23 185 -1 128 -20 197 -85 306 -51 84 -175 196 -267 241
-76 37 -78 39 -101 98 -51 129 -165 265 -275 330 -98 57 -166 75 -290 75 -85
0 -130 -5 -177 -20 -75 -23 -169 -77 -220 -126 l-35 -34 -30 31 c-43 45 -125
97 -199 124 -88 33 -258 35 -348 4z m277 -34 c81 -21 155 -60 215 -112 42 -37
49 -48 41 -63 -14 -26 -12 -50 4 -50 7 0 47 33 88 74 132 130 295 186 460 158
177 -29 336 -155 421 -332 25 -52 49 -112 52 -132 4 -20 13 -45 20 -55 11 -15
15 -15 29 -4 9 8 15 20 12 28 -9 22 8 15 85 -35 175 -115 279 -292 279 -477 0
-79 -17 -150 -57 -235 -28 -59 -54 -93 -120 -159 -81 -79 -97 -111 -58 -111
17 0 147 125 183 175 20 29 21 30 36 10 27 -37 76 -145 94 -208 12 -44 17 -98
16 -187 0 -109 -4 -135 -28 -205 -37 -109 -77 -175 -153 -256 -102 -108 -238
-181 -380 -204 l-42 -7 -6 39 c-36 222 -170 409 -359 504 -82 41 -118 46 -124
18 -2 -12 11 -22 44 -35 67 -26 182 -103 226 -152 100 -111 156 -243 165 -391
21 -342 -272 -641 -627 -641 -77 0 -182 21 -244 48 l-44 20 9 43 c4 24 8 63 9
87 0 39 -2 43 -22 40 -19 -3 -24 -11 -31 -58 -27 -197 -78 -301 -208 -426
-251 -239 -654 -282 -962 -102 -84 49 -208 165 -237 221 -43 83 -85 150 -97
155 -24 7 -25 -29 -4 -80 24 -59 29 -52 -69 -102 -283 -146 -671 -120 -936 62
-73 50 -184 166 -184 192 0 4 26 10 57 14 68 8 152 33 172 52 11 10 12 16 2
28 -11 13 -19 12 -69 -5 -180 -63 -379 -14 -509 125 -115 123 -158 277 -118
429 16 62 52 138 82 176 20 24 20 24 68 7 27 -9 80 -19 118 -23 68 -6 69 -6
65 18 -3 21 -10 25 -67 32 -61 7 -122 27 -201 65 -19 9 -62 44 -96 77 -136
134 -171 331 -88 500 68 138 207 236 371 261 40 6 42 5 48 -22 19 -84 37 -136
51 -141 32 -12 35 13 12 98 -28 107 -31 281 -4 379 57 212 201 389 391 481
121 58 190 74 330 73 108 0 130 -4 213 -32 102 -35 142 -57 142 -78 0 -8 10
-14 26 -14 15 0 44 -15 70 -36 43 -36 74 -40 74 -10 0 11 -62 69 -99 93 -10 6
47 78 106 133 195 182 480 209 696 66 l57 -38 -19 -36 c-10 -20 -16 -43 -14
-49 10 -29 35 -9 83 67 133 207 352 308 554 255z m-2012 -3325 c107 -33 187
-121 188 -206 0 -46 -45 -128 -88 -157 -124 -86 -284 -88 -408 -5 -123 83
-136 200 -34 300 84 81 215 108 342 68z m-324 -424 c69 -43 81 -104 32 -160
-55 -62 -160 -74 -211 -25 -14 13 -34 29 -45 35 -27 16 -27 93 1 124 56 63
148 74 223 26z m-277 -184 c9 -4 31 -20 49 -35 29 -25 32 -32 24 -55 -19 -55
-120 -79 -190 -46 -41 20 -58 47 -49 81 10 42 114 77 166 55z"/>
<path d="M1170 3150 l0 -230 130 0 130 0 0 35 0 35 -95 0 -95 0 0 195 0 195
-35 0 -35 0 0 -230z"/>
<path d="M1534 3241 c-89 -54 -84 -269 7 -316 47 -25 107 -15 142 25 35 39 34
57 -4 65 -25 6 -34 3 -45 -14 -9 -12 -24 -21 -35 -21 -25 0 -59 34 -59 60 0
19 7 20 91 20 l92 0 -5 48 c-12 124 -98 186 -184 133z m100 -73 c28 -39 21
-48 -39 -48 -60 0 -67 9 -39 48 8 12 26 22 39 22 13 0 31 -10 39 -22z"/>
<path d="M1830 3253 c-56 -22 -83 -89 -56 -141 15 -29 34 -39 144 -77 22 -8
14 -44 -12 -51 -37 -9 -60 -1 -71 24 -8 19 -15 21 -45 16 -19 -4 -36 -7 -37
-8 -1 0 5 -16 12 -33 45 -107 227 -89 236 22 5 73 -12 94 -105 125 -50 16 -66
26 -64 38 5 26 62 28 85 3 13 -13 26 -18 46 -14 34 7 35 32 4 69 -18 21 -34
27 -73 30 -27 2 -56 1 -64 -3z"/>
<path d="M1830 2590 c0 -39 1 -40 35 -40 34 0 35 1 35 40 0 39 -1 40 -35 40
-34 0 -35 -1 -35 -40z"/>
<path d="M2270 2400 l0 -230 35 0 35 0 0 230 0 230 -35 0 -35 0 0 -230z"/>
<path d="M3222 2585 c23 -30 40 -44 57 -45 18 0 22 4 16 18 -4 9 -12 29 -17
45 -9 23 -15 27 -49 27 l-40 0 33 -45z"/>
<path d="M1688 2589 c-21 -16 -28 -29 -28 -56 l0 -35 -49 7 c-45 6 -50 4 -70
-21 -20 -25 -21 -25 -21 -5 0 17 -6 21 -35 21 l-35 0 0 -165 0 -165 40 0 40 0
0 111 c0 128 9 154 50 146 24 -5 29 -2 38 26 10 32 10 32 11 5 1 -18 7 -28 16
-28 12 0 15 -18 15 -106 0 -134 13 -164 75 -164 44 0 56 12 49 46 -4 23 -11
30 -27 30 -21 -1 -22 4 -25 97 l-3 97 26 0 c22 0 25 4 25 35 0 31 -3 35 -25
35 -24 0 -25 3 -25 55 0 30 -3 55 -7 55 -5 0 -20 -10 -35 -21z"/>
<path d="M1225 2501 c-25 -11 -51 -40 -59 -67 -10 -32 39 -43 66 -15 22 25 60
27 78 6 20 -25 5 -40 -57 -58 -77 -21 -98 -45 -98 -109 0 -42 4 -53 28 -74 34
-29 76 -31 110 -4 30 24 37 25 37 5 0 -10 10 -15 33 -15 l32 0 -3 132 c-4 142
-13 175 -52 195 -28 14 -85 16 -115 4z m95 -201 c0 -60 -69 -94 -92 -45 -14
30 -4 44 45 62 46 17 47 16 47 -17z"/>
<path d="M2045 2500 c-97 -40 -115 -222 -30 -307 25 -25 42 -33 69 -33 51 0
90 23 110 64 21 45 20 53 -6 60 -38 10 -46 7 -52 -19 -8 -33 -50 -44 -76 -20
-41 37 -34 176 10 190 29 9 58 -3 65 -26 6 -17 12 -19 38 -13 18 3 34 8 35 9
2 2 -4 20 -13 40 -27 55 -92 79 -150 55z"/>
<path d="M2464 2491 c-89 -54 -84 -269 7 -316 47 -25 107 -15 142 25 35 39 34
57 -4 65 -25 6 -34 3 -45 -14 -9 -12 -24 -21 -35 -21 -25 0 -59 34 -59 60 0
19 7 20 91 20 l92 0 -5 48 c-12 124 -98 186 -184 133z m100 -73 c28 -39 21
-48 -39 -48 -60 0 -67 9 -39 48 8 12 26 22 39 22 13 0 31 -10 39 -22z"/>
<path d="M2760 2503 c-56 -22 -83 -89 -56 -141 15 -29 34 -39 144 -77 22 -8
14 -44 -12 -51 -37 -9 -60 -1 -71 24 -8 19 -15 21 -45 16 -19 -4 -36 -7 -37
-8 -1 0 5 -16 12 -33 45 -107 227 -89 236 22 5 73 -12 94 -105 125 -50 16 -66
26 -64 38 5 26 62 28 85 3 13 -13 26 -18 46 -14 34 7 35 32 4 69 -18 21 -34
27 -73 30 -27 2 -56 1 -64 -3z"/>
<path d="M3205 2501 c-25 -11 -51 -40 -59 -67 -10 -32 39 -43 66 -15 22 25 60
27 78 6 20 -25 5 -40 -57 -58 -77 -21 -98 -45 -98 -109 0 -42 4 -53 28 -74 34
-29 76 -31 110 -4 30 24 37 25 37 5 0 -10 10 -15 33 -15 l32 0 -3 132 c-4 142
-13 175 -52 195 -28 14 -85 16 -115 4z m95 -201 c0 -60 -69 -94 -92 -45 -14
30 -4 44 45 62 46 17 47 16 47 -17z"/>
<path d="M1830 2335 l0 -165 35 0 35 0 0 165 0 165 -35 0 -35 0 0 -165z"/>
<path d="M2070 1840 c0 -39 1 -40 35 -40 34 0 35 1 35 40 0 39 -1 40 -35 40
-34 0 -35 -1 -35 -40z"/>
<path d="M2581 1783 c2 -163 12 -237 30 -241 24 -4 28 15 35 184 l7 154 -36 0
-37 0 1 -97z"/>
<path d="M1504 1741 c-89 -54 -84 -269 7 -316 47 -25 107 -15 142 25 35 39 34
57 -4 65 -25 6 -34 3 -45 -14 -9 -12 -24 -21 -35 -21 -25 0 -59 34 -59 60 0
19 7 20 91 20 l92 0 -5 48 c-12 124 -98 186 -184 133z m100 -73 c28 -39 21
-48 -39 -48 -60 0 -67 9 -39 48 8 12 26 22 39 22 13 0 31 -10 39 -22z"/>
<path d="M1870 1753 c-8 -3 -25 -15 -37 -26 l-23 -20 0 21 c0 18 -6 22 -30 22
l-30 0 0 -165 0 -165 35 0 35 0 0 115 c0 102 2 117 20 135 11 11 28 20 38 20
36 0 42 -20 42 -147 l0 -123 35 0 35 0 0 135 c0 77 -5 144 -11 158 -17 37 -67
55 -109 40z"/>
<path d="M2301 1734 c-20 -25 -21 -26 -21 -5 0 17 -6 21 -35 21 l-35 0 0 -165
0 -165 40 0 40 0 0 111 c0 129 9 154 51 145 26 -5 29 -2 35 29 3 18 3 38 -1
44 -12 20 -53 12 -74 -15z"/>
<path d="M1140 1743 c0 -4 24 -78 52 -165 52 -158 53 -158 83 -158 30 0 30 1
79 153 27 83 51 158 53 165 4 10 -5 13 -33 10 l-38 -3 -30 -109 -30 -109 -13
39 c-6 22 -22 72 -33 112 -22 71 -22 72 -56 72 -19 0 -34 -3 -34 -7z"/>
<path d="M2070 1585 l0 -165 35 0 35 0 0 165 0 165 -35 0 -35 0 0 -165z"/>
<path d="M2580 1465 c0 -45 0 -45 35 -45 35 0 35 0 35 45 0 45 0 45 -35 45
-35 0 -35 0 -35 -45z"/>
</g>
</svg>
