<?xml version="1.0" encoding="UTF-8"?>
<svg fill="#FFFFFF" xmlns="http://www.w3.org/2000/svg" width="512" height="512" viewBox="0 0 128 128">
	<path d="M88.187,58.25H69.75V39.813A5.751,5.751,0,0,0,64,34.064h0a5.75,5.75,0,0,0-5.75,5.75V58.25H39.813a5.75,5.75,0,0,0,0,11.5H58.25V88.187A5.75,5.75,0,0,0,64,93.936h0a5.75,5.75,0,0,0,5.75-5.75V69.75H88.187a5.75,5.75,0,1,0,0-11.5Zm0,8H68A1.751,1.751,0,0,0,66.25,68V88.187A2.248,2.248,0,0,1,64,90.436h0a2.248,2.248,0,0,1-2.247-2.249V68A1.75,1.75,0,0,0,60,66.25H39.812a2.25,2.25,0,0,1,0-4.5H60A1.75,1.75,0,0,0,61.75,60V39.813A2.248,2.248,0,0,1,64,37.564h0a2.252,2.252,0,0,1,2.248,2.249V60A1.75,1.75,0,0,0,68,61.75H88.187a2.25,2.25,0,1,1,0,4.5Z" />
	<path d="M64,17.25A46.75,46.75,0,1,0,110.75,64,46.8,46.8,0,0,0,64,17.25Zm0,90A43.25,43.25,0,1,1,107.25,64,43.3,43.3,0,0,1,64,107.25Z" />
</svg>
