<svg fill="#000000" xmlns="http://www.w3.org/2000/svg"  viewBox="0 0 16 16" width="32px" height="32px"><path d="M 6.5 1 C 5.675781 1 5 1.675781 5 2.5 L 5 3 L 2.5 3 C 1.648438 3 1 3.753906 1 4.609375 L 1 12.386719 C 1 13.246094 1.648438 14 2.503906 14 L 13.496094 14 C 14.351563 14 15 13.242188 15 12.386719 L 15 4.613281 C 15 3.753906 14.351563 3 13.5 3 L 11 3 L 11 2.5 C 11 1.675781 10.324219 1 9.5 1 Z M 6.5 2 L 9.5 2 C 9.78125 2 10 2.21875 10 2.5 L 10 3 L 6 3 L 6 2.5 C 6 2.21875 6.21875 2 6.5 2 Z M 2.5 4 L 13.5 4 C 13.75 4 14 4.242188 14 4.613281 L 14 7 L 2 7 L 2 4.609375 C 2 4.242188 2.25 4 2.5 4 Z M 2 8 L 4 8 L 4 9 L 6 9 L 6 8 L 10 8 L 10 9 L 12 9 L 12 8 L 14 8 L 14 12.386719 C 14 12.757813 13.75 13 13.496094 13 L 2.503906 13 C 2.25 13 2 12.757813 2 12.386719 Z"/></svg>