<?xml version="1.0" encoding="iso-8859-1"?>
<!-- Generator: Adobe Illustrator 18.1.1, SVG Export Plug-In . SVG Version: 6.00 Build 0)  -->
<svg version="1.1" id="Capa_1" xmlns="http://www.w3.org/2000/svg" xmlns:xlink="http://www.w3.org/1999/xlink" x="0px" y="0px"
	 viewBox="0 0 59.928 59.928" style="enable-background:new 0 0 59.928 59.928;" xml:space="preserve">
<g>
	<g>
		<path style="fill:#FFFFFF;" d="M22.714,59.928c-0.128,0-0.259-0.024-0.383-0.076c-0.427-0.177-0.676-0.622-0.604-1.078
			l3.781-24.199l-12.944,2.409c-0.408,0.076-0.813-0.104-1.03-0.451c-0.218-0.348-0.202-0.793,0.04-1.124l25.666-35
			c0.271-0.37,0.76-0.508,1.185-0.335c0.425,0.174,0.677,0.613,0.612,1.067l-3.629,25.565l11.92-2.682
			c0.408-0.092,0.827,0.079,1.056,0.428c0.229,0.348,0.217,0.803-0.029,1.139L23.521,59.519
			C23.328,59.782,23.025,59.928,22.714,59.928z M26.715,32.333c0.258,0,0.508,0.1,0.696,0.282c0.233,0.227,0.341,0.552,0.291,0.872
			l-3.364,21.529l20.828-28.455l-10.732,2.414c-0.32,0.073-0.656-0.018-0.897-0.24s-0.358-0.551-0.312-0.876l3.272-23.055
			l-21.816,29.75l11.851-2.204C26.592,32.339,26.653,32.333,26.715,32.333z"/>
	</g>
</g>
<g>
</g>
<g>
</g>
<g>
</g>
<g>
</g>
<g>
</g>
<g>
</g>
<g>
</g>
<g>
</g>
<g>
</g>
<g>
</g>
<g>
</g>
<g>
</g>
<g>
</g>
<g>
</g>
<g>
</g>
</svg>
